<svg width="40" height="40" viewBox="0 0 40 40" fill="none" xmlns="http://www.w3.org/2000/svg">
    <circle opacity="0.05" cx="19.999" cy="20" r="20" fill="#E71D36"/>
    <path opacity="0.8" d="M20.9152 19.9999L24.809 23.8939C25.0624 24.1472 25.0624 24.5567 24.809 24.81C24.5557 25.0633 24.1462 25.0633 23.8929 24.81L19.999 20.916L16.1052 24.81C15.8518 25.0633 15.4424 25.0633 15.1891 24.81C14.9357 24.5567 14.9357 24.1472 15.1891 23.8939L19.0829 19.9999L15.1891 16.1059C14.9357 15.8526 14.9357 15.4431 15.1891 15.1898C15.3153 15.0635 15.4813 15 15.6471 15C15.813 15 15.9788 15.0635 16.1052 15.1898L19.999 19.0838L23.8929 15.1898C24.0192 15.0635 24.1851 15 24.3509 15C24.5168 15 24.6826 15.0635 24.809 15.1898C25.0624 15.4431 25.0624 15.8526 24.809 16.1059L20.9152 19.9999Z" fill="#E71D36"/>
</svg>
