<svg width="17" height="20" viewBox="0 0 17 20" fill="none" xmlns="http://www.w3.org/2000/svg">
    <path d="M6.8165 8.625C7.3415 8.625 7.76675 9.01875 7.75712 9.5C7.75712 9.98125 7.34238 10.375 6.8165 10.375C6.30025 10.375 5.875 9.98125 5.875 9.5C5.875 9.01875 6.29063 8.625 6.8165 8.625ZM10.1835 8.625C10.7094 8.625 11.125 9.01875 11.125 9.5C11.125 9.98125 10.7094 10.375 10.1835 10.375C9.66725 10.375 9.24288 9.98125 9.24288 9.5C9.24288 9.01875 9.65763 8.625 10.1835 8.625ZM14.5296 0.75C15.5473 0.75 16.375 1.59525 16.375 2.64263V19.125L14.4404 17.3794L13.351 16.3504L12.1986 15.2566L12.6764 16.9567H2.47038C1.45275 16.9567 0.625 16.1115 0.625 15.0641V2.64263C0.625 1.59525 1.45275 0.75 2.47038 0.75H14.5287H14.5296ZM11.0559 12.7489C13.0447 12.685 13.8104 11.3524 13.8104 11.3524C13.8104 8.394 12.5136 5.99563 12.5136 5.99563C11.2186 5.00425 9.98487 5.03137 9.98487 5.03137L9.85888 5.17837C11.3893 5.65613 12.0998 6.34563 12.0998 6.34563C11.2642 5.87487 10.3433 5.57505 9.39075 5.46362C8.78651 5.39538 8.17619 5.40126 7.57337 5.48112C7.51912 5.48112 7.47362 5.49075 7.42025 5.4995C7.10525 5.5275 6.33962 5.6465 5.37712 6.07875C5.04462 6.2345 4.846 6.34563 4.846 6.34563C4.846 6.34563 5.59325 5.61938 7.21288 5.14162L7.12275 5.03137C7.12275 5.03137 5.88987 5.00425 4.594 5.9965C4.594 5.9965 3.29812 8.394 3.29812 11.3524C3.29812 11.3524 4.05413 12.6841 6.043 12.7489C6.043 12.7489 6.3755 12.3359 6.64675 11.9867C5.50312 11.6368 5.07175 10.9018 5.07175 10.9018C5.07175 10.9018 5.161 10.9665 5.32288 11.0584C5.33163 11.0671 5.34037 11.0767 5.35875 11.0855C5.38587 11.1048 5.413 11.1135 5.44013 11.1319C5.665 11.2605 5.88988 11.3611 6.09638 11.4443C6.46563 11.5913 6.90662 11.7382 7.42025 11.8398C8.18965 11.9906 8.98074 11.9935 9.75125 11.8485C10.2001 11.7684 10.6379 11.636 11.0559 11.4539C11.3709 11.334 11.7218 11.159 12.091 10.9114C12.091 10.9114 11.6412 11.6648 10.4618 12.0051C10.7321 12.3542 11.0568 12.7489 11.0568 12.7489H11.0559Z" fill="#5C6BC0"/>
</svg>
