<svg width="19" height="17" viewBox="0 0 19 17" fill="none" xmlns="http://www.w3.org/2000/svg">
    <path d="M1.625 0.625H17.375C17.6071 0.625 17.8296 0.717187 17.9937 0.881282C18.1578 1.04538 18.25 1.26794 18.25 1.5V15.5C18.25 15.7321 18.1578 15.9546 17.9937 16.1187C17.8296 16.2828 17.6071 16.375 17.375 16.375H1.625C1.39294 16.375 1.17038 16.2828 1.00628 16.1187C0.842187 15.9546 0.75 15.7321 0.75 15.5V1.5C0.75 1.26794 0.842187 1.04538 1.00628 0.881282C1.17038 0.717187 1.39294 0.625 1.625 0.625V0.625ZM9.5525 8.22262L3.942 3.45825L2.80888 4.79175L9.56387 10.5274L16.1972 4.78737L15.0528 3.4635L9.55337 8.22262H9.5525Z" fill="url(#paint0_linear_272_144)"/>
    <path d="M4.26564 3.07713L3.88464 2.75359L3.56098 3.13448L2.42786 4.46798L2.10397 4.84915L2.48525 5.17289L9.24025 10.9085L9.56696 11.1859L9.89105 10.9055L16.5244 5.16547L16.9023 4.83845L16.5755 4.46038L15.431 3.1365L15.1038 2.75806L14.7256 3.08542L9.54987 7.56443L4.26564 3.07713ZM1.625 1.125H17.375C17.4745 1.125 17.5698 1.16451 17.6402 1.23483C17.7105 1.30516 17.75 1.40054 17.75 1.5V15.5C17.75 15.5995 17.7105 15.6948 17.6402 15.7652C17.5698 15.8355 17.4745 15.875 17.375 15.875H1.625C1.52554 15.875 1.43016 15.8355 1.35983 15.7652C1.28951 15.6948 1.25 15.5995 1.25 15.5V1.5C1.25 1.40054 1.28951 1.30516 1.35983 1.23483C1.43016 1.16451 1.52554 1.125 1.625 1.125Z" stroke="white" stroke-opacity="0.2"/>
    <defs>
        <linearGradient id="paint0_linear_272_144" x1="9.5" y1="0.625" x2="9.5" y2="16.375" gradientUnits="userSpaceOnUse">
            <stop stop-color="#5A7EFF"/>
            <stop offset="1" stop-color="#6EE5FF"/>
        </linearGradient>
    </defs>
</svg>
