<svg width="19" height="18" viewBox="0 0 19 18" fill="none" xmlns="http://www.w3.org/2000/svg">
    <path d="M9.5 0.75C4.66563 0.75 0.750001 4.66562 0.750001 9.5C0.749009 11.3369 1.32646 13.1274 2.40044 14.6176C3.47442 16.1078 4.99038 17.2219 6.73325 17.802C7.17075 17.8781 7.33438 17.6156 7.33438 17.3855C7.33438 17.1781 7.323 16.4895 7.323 15.7562C5.125 16.1614 4.55625 15.2207 4.38125 14.7281C4.28238 14.4761 3.85625 13.7 3.48438 13.4917C3.17813 13.3281 2.74063 12.923 3.473 12.9125C4.1625 12.9011 4.65425 13.5469 4.81875 13.8094C5.60625 15.1324 6.8645 14.7605 7.36675 14.5312C7.44375 13.9625 7.673 13.5801 7.925 13.3614C5.97813 13.1426 3.94375 12.3875 3.94375 9.04062C3.94375 8.08862 4.28238 7.302 4.84063 6.68862C4.75313 6.46987 4.44688 5.573 4.92813 4.36987C4.92813 4.36987 5.6605 4.14062 7.33438 5.26762C8.04668 5.06993 8.78265 4.97043 9.52188 4.97187C10.2656 4.97187 11.0094 5.06987 11.7094 5.26675C13.3824 4.12925 14.1156 4.37075 14.1156 4.37075C14.5969 5.57387 14.2906 6.47075 14.2031 6.6895C14.7605 7.302 15.1 8.07812 15.1 9.04062C15.1 12.3989 13.0551 13.1426 11.1083 13.3614C11.425 13.6344 11.6989 14.1594 11.6989 14.9801C11.6989 16.15 11.6875 17.0906 11.6875 17.3864C11.6875 17.6156 11.852 17.8886 12.2895 17.8011C14.0264 17.2147 15.5357 16.0984 16.6049 14.6093C17.6742 13.1201 18.2495 11.3332 18.25 9.5C18.25 4.66562 14.3344 0.75 9.5 0.75Z" fill="white"/>
    <path d="M1.25 9.5V9.50027C1.24907 11.2321 1.7935 12.9203 2.80607 14.3253C3.8069 15.7139 5.21482 16.7563 6.83404 17.3083C6.83354 17.2372 6.83252 17.1406 6.83129 17.0235C6.83049 16.948 6.82961 16.8641 6.82871 16.773C6.82739 16.6383 6.82607 16.4891 6.82503 16.3311C5.96099 16.4126 5.32118 16.2798 4.84893 16.0149C4.27511 15.6931 4.02709 15.2205 3.91341 14.9048C3.87707 14.8149 3.76573 14.5939 3.61738 14.3682C3.54321 14.2554 3.46636 14.1515 3.39305 14.0687C3.31781 13.9837 3.26584 13.9432 3.24236 13.9293C3.13911 13.8736 3.02758 13.7997 2.92839 13.7162C2.83833 13.6404 2.709 13.516 2.63427 13.3522C2.59439 13.2647 2.55372 13.1299 2.58148 12.9711C2.61161 12.7988 2.71015 12.6671 2.82672 12.5815C3.01962 12.4398 3.2703 12.4154 3.46583 12.4125M1.25 9.5L3.473 12.9125M1.25 9.5C1.25 4.94177 4.94177 1.25 9.5 1.25M1.25 9.5L9.5 1.25M3.46583 12.4125L3.473 12.9125M3.46583 12.4125C3.46547 12.4126 3.46511 12.4126 3.46475 12.4126L3.473 12.9125M3.46583 12.4125C3.9742 12.4045 4.38265 12.6389 4.66424 12.8753C4.94702 13.1127 5.1433 13.3857 5.24243 13.5439L5.24851 13.5536L5.2484 13.5536C5.55843 14.0745 5.92536 14.2251 6.2455 14.2545C6.48911 14.2769 6.73017 14.2299 6.92614 14.1666M3.473 12.9125C3.49257 12.9122 3.51198 12.9124 3.53123 12.9131C3.52893 12.9095 3.5275 12.9077 3.5274 12.9076C3.52732 12.9075 3.52827 12.9088 3.53059 12.9115C3.53105 12.912 3.53153 12.9126 3.53204 12.9131C4.19054 12.938 4.65899 13.5544 4.81875 13.8094C5.60625 15.1324 6.8645 14.7605 7.36675 14.5312M6.92614 14.1666C6.90367 14.2617 6.88525 14.3609 6.87127 14.4642L7.36675 14.5312M6.92614 14.1666C7.01419 14.1382 7.09314 14.1065 7.15913 14.0764L7.36675 14.5312M6.92614 14.1666C6.96279 14.0115 7.0102 13.8674 7.06666 13.7345M7.36675 14.5312C7.40483 14.25 7.48015 14.0143 7.57704 13.8214C7.40851 13.7977 7.23784 13.7692 7.06666 13.7345M7.06666 13.7345C7.1398 13.5623 7.22812 13.4091 7.3279 13.2754C5.58373 12.9613 3.94375 12.0456 3.94375 9.04062C3.94375 8.08862 4.28238 7.302 4.84063 6.68862M7.06666 13.7345C6.29971 13.5786 5.52251 13.2968 4.88186 12.7562C3.99104 12.0045 3.44375 10.8231 3.44375 9.04062C3.44375 8.07291 3.75482 7.24555 4.27888 6.57884M4.27888 6.57884C4.31445 6.71067 4.35093 6.81067 4.37639 6.87432L4.84063 6.68862M4.27888 6.57884C4.34002 6.50105 4.40406 6.42546 4.47085 6.35208L4.84063 6.68862M4.27888 6.57884C4.15304 6.11238 4.03859 5.24742 4.46389 4.18418L4.5521 3.96366L4.77876 3.89271L4.84063 6.68862M12.1652 17.3153C12.1727 17.3127 12.1802 17.3101 12.1877 17.3075C12.1877 17.3089 12.1877 17.3102 12.1877 17.3116M12.1652 17.3153C12.1296 17.3201 12.1157 17.3166 12.118 17.3171C12.1193 17.3174 12.125 17.3188 12.1333 17.323C12.1345 17.3236 12.1356 17.3243 12.1368 17.3249M12.1652 17.3153C12.1719 17.3144 12.1794 17.3132 12.1877 17.3116M12.1652 17.3153C12.1557 17.3185 12.1463 17.3217 12.1368 17.3249M12.1368 17.3249C12.1344 17.3258 12.132 17.3266 12.1296 17.3274L12.1495 17.3864L12.2895 17.8011L12.1914 17.3108C12.1902 17.3111 12.1889 17.3113 12.1877 17.3116M12.1368 17.3249C12.144 17.3289 12.1514 17.3341 12.1584 17.3404C12.1749 17.3552 12.1824 17.3698 12.1852 17.3768C12.1876 17.3829 12.1875 17.3855 12.1875 17.3864C12.1875 17.3649 12.1876 17.3399 12.1877 17.3116M9.5 1.25C14.0582 1.25 17.7499 4.94169 17.75 9.49986L9.5 1.25ZM3.36405 13.4191C3.35908 13.4211 3.35533 13.4224 3.35307 13.4231C3.35386 13.4229 3.35484 13.4227 3.35603 13.4225C3.35871 13.4219 3.36211 13.4212 3.36626 13.4205C3.36552 13.42 3.36479 13.4195 3.36405 13.4191ZM7.42273 4.72738C7.34848 4.74587 7.27445 4.76536 7.20066 4.78584L7.33438 5.26762L7.61362 4.85287C7.54881 4.80923 7.48518 4.76743 7.42273 4.72738ZM7.323 15.7562C7.146 15.7889 6.97956 15.8128 6.82304 15.8289L7.32461 16.2638C7.32364 16.101 7.323 15.9299 7.323 15.7562ZM14.7649 6.57951C14.7038 6.50187 14.6397 6.42636 14.5729 6.35298L14.2031 6.6895L14.6674 6.8752C14.6928 6.81151 14.7293 6.71144 14.7649 6.57951ZM11.7066 13.2755C11.5076 13.3111 11.3074 13.339 11.1083 13.3614C11.2368 13.4722 11.3584 13.6245 11.4574 13.8214C11.6259 13.7977 11.7967 13.7694 11.968 13.7348C11.895 13.5629 11.8068 13.4096 11.7066 13.2755ZM9.52188 4.97187L9.52286 4.47188C9.52269 4.47188 9.52253 4.47187 9.52237 4.47187C9.52221 4.47187 9.52204 4.47187 9.52188 4.47187V4.97187ZM11.6203 4.72582C11.5575 4.76647 11.4935 4.80893 11.4282 4.85327L11.7094 5.26675L11.8447 4.78542C11.7704 4.7645 11.6955 4.74463 11.6203 4.72582ZM17.75 9.5H18.25H17.75Z" stroke="white" stroke-opacity="0.2"/>
</svg>
