<svg width="19" height="19" viewBox="0 0 19 19" fill="none" xmlns="http://www.w3.org/2000/svg">
    <path d="M9.5 18.25C4.66738 18.25 0.75 14.3326 0.75 9.5C0.75 4.66738 4.66738 0.75 9.5 0.75C14.3326 0.75 18.25 4.66738 18.25 9.5C18.25 14.3326 14.3326 18.25 9.5 18.25ZM6.77875 10.5238L6.79012 10.5176L7.55137 13.0289C7.64937 13.301 7.78412 13.35 7.94775 13.3273C8.11225 13.3054 8.19887 13.217 8.3065 13.1137L9.346 12.1093L11.5772 13.7613C11.985 13.9861 12.2781 13.8698 12.3796 13.3832L13.8295 6.539C13.9896 5.902 13.7096 5.6465 13.2153 5.8495L4.69887 9.1395C4.11788 9.37225 4.12138 9.69775 4.59388 9.84212L6.77875 10.5246V10.5238Z" fill="#039BE5"/>
</svg>
